<svg width="140" height="102" viewBox="0 0 140 102" fill="none" xmlns="http://www.w3.org/2000/svg">
<path id="discord-icon" d="M120.721 13.4298C120.721 13.4298 106.265 2.07726 89.199 0.780731L87.6607 3.87027C103.088 7.66183 110.168 13.082 117.569 19.7544C104.812 13.2211 92.2252 7.10527 70.2857 7.10527C48.3463 7.10527 35.7594 13.2211 23.0024 19.7544C30.4038 13.082 38.8266 7.05468 52.9107 3.87027L51.3724 0.780731C33.4678 2.47255 19.8502 13.4298 19.8502 13.4298C19.8502 13.4298 3.70768 36.9128 0.936874 82.9998C17.2023 101.825 41.9157 101.973 41.9157 101.973L47.0854 95.067C38.3096 92.0059 28.4116 86.5447 19.8502 76.6752C30.0571 84.4228 45.462 92.4866 70.2857 92.4866C95.1094 92.4866 110.514 84.4228 120.721 76.6752C112.163 86.5447 102.265 92.0059 93.4861 95.067L98.6557 101.973C98.6557 101.973 123.369 101.825 139.635 82.9998C136.864 36.9128 120.721 13.4298 120.721 13.4298ZM49.7963 70.3507C43.6999 70.3507 38.7635 64.6902 38.7635 57.7016C38.7635 50.713 43.6999 45.0525 49.7963 45.0525C55.8927 45.0525 60.8291 50.713 60.8291 57.7016C60.8291 64.6902 55.8927 70.3507 49.7963 70.3507ZM90.7751 70.3507C84.6788 70.3507 79.7424 64.6902 79.7424 57.7016C79.7424 50.713 84.6788 45.0525 90.7751 45.0525C96.8715 45.0525 101.808 50.713 101.808 57.7016C101.808 64.6902 96.8715 70.3507 90.7751 70.3507Z" fill="#8C9EFF"/>
</svg>
