<svg width="937" height="913" viewBox="0 0 937 913" fill="none" xmlns="http://www.w3.org/2000/svg">
<g id="github-icon">
<path id="Vector" d="M163.54 674.935C162.512 677.259 158.847 677.956 155.517 676.363C152.12 674.836 150.211 671.665 151.312 669.331C152.322 666.938 155.987 666.27 159.376 667.878C162.78 669.401 164.718 672.601 163.54 674.935V674.935ZM186.57 695.473C184.337 697.543 179.971 696.582 177.008 693.312C173.946 690.049 173.373 685.689 175.638 683.586C177.941 681.52 182.174 682.485 185.244 685.751C188.306 689.051 188.901 693.385 186.566 695.477L186.57 695.473ZM202.37 721.752C199.498 723.745 194.806 721.876 191.909 717.714C189.041 713.556 189.041 708.565 191.971 706.565C194.879 704.564 199.498 706.363 202.436 710.492C205.3 714.723 205.3 719.715 202.366 721.755L202.37 721.752ZM229.086 752.188C226.52 755.014 221.056 754.258 217.054 750.397C212.963 746.624 211.821 741.269 214.395 738.44C216.991 735.606 222.488 736.403 226.52 740.231C230.584 743.996 231.825 749.391 229.09 752.188H229.086ZM263.617 762.465C262.489 766.127 257.224 767.794 251.922 766.237C246.627 764.634 243.161 760.34 244.229 756.636C245.331 752.948 250.618 751.212 255.961 752.878C261.248 754.475 264.722 758.736 263.62 762.465H263.617ZM302.92 766.821C303.052 770.682 298.554 773.882 292.988 773.952C287.388 774.073 282.861 770.95 282.802 767.155C282.802 763.257 287.197 760.086 292.793 759.995C298.36 759.884 302.92 762.986 302.92 766.821V766.821ZM341.526 765.342C342.195 769.107 338.325 772.976 332.798 774.003C327.364 774.994 322.333 772.671 321.64 768.939C320.964 765.078 324.907 761.213 330.331 760.211C335.868 759.25 340.821 761.514 341.526 765.342" fill="#161614"/>
<path id="Vector_2" d="M468.182 0C209.646 0 0 209.51 0 467.961C0 674.722 134.148 850.133 320.173 912.011C343.57 916.342 352.162 901.86 352.162 889.499C352.162 878.342 351.725 841.475 351.527 802.373C221.275 830.681 193.791 747.16 193.791 747.16C172.494 693.069 141.808 678.69 141.808 678.69C99.3316 649.644 145.01 650.239 145.01 650.239C192.024 653.542 216.78 698.464 216.78 698.464C258.537 770.006 326.305 749.321 353.021 737.368C357.222 707.119 369.358 686.478 382.745 674.792C278.758 662.956 169.439 622.83 169.439 443.522C169.439 392.433 187.728 350.686 217.68 317.915C212.818 306.126 196.794 258.532 222.215 194.073C222.215 194.073 261.529 181.496 350.998 242.042C388.341 231.67 428.394 226.473 468.182 226.297C507.971 226.473 548.053 231.67 585.469 242.042C674.832 181.496 714.092 194.073 714.092 194.073C739.574 258.532 723.543 306.126 718.681 317.915C748.699 350.686 766.864 392.43 766.864 443.522C766.864 623.256 657.339 662.835 553.087 674.418C569.879 688.94 584.842 717.421 584.842 761.077C584.842 823.69 584.298 874.084 584.298 889.499C584.298 901.952 592.725 916.544 616.46 911.949C802.382 850.001 936.361 674.652 936.361 467.961C936.361 209.51 726.745 0 468.182 0Z" fill="#161614"/>
</g>
</svg>
