<svg width="938" height="939" viewBox="0 0 938 939" fill="none" xmlns="http://www.w3.org/2000/svg">
<g id="instagram-icon">
<path id="Path 14" d="M312.694 469.023C312.694 438.102 321.864 407.875 339.044 382.165C356.223 356.454 380.641 336.416 409.21 324.583C437.779 312.75 469.215 309.654 499.543 315.686C529.872 321.718 557.73 336.609 579.596 358.473C601.461 380.338 616.352 408.195 622.384 438.522C628.417 468.85 625.321 500.285 613.487 528.852C601.654 557.42 581.614 581.837 555.903 599.016C530.192 616.195 499.964 625.364 469.041 625.364C427.576 625.364 387.808 608.892 358.487 579.573C329.166 550.253 312.694 510.487 312.694 469.023ZM228.166 469.023C228.166 516.655 242.29 563.218 268.754 602.823C295.217 642.428 332.831 673.297 376.839 691.526C420.846 709.756 469.272 714.527 515.991 705.236C562.71 695.945 605.625 673.011 639.309 639.331C672.994 605.652 695.934 562.742 705.231 516.025C714.527 469.309 709.761 420.885 691.536 376.877C673.311 332.869 642.446 295.253 602.842 268.786C563.238 242.319 516.675 228.19 469.041 228.184C437.412 228.183 406.093 234.412 376.871 246.515C347.65 258.617 321.098 276.357 298.733 298.722C276.368 321.086 258.628 347.636 246.524 376.857C234.421 406.077 228.192 437.395 228.193 469.023H228.166ZM663.096 218.638C663.092 229.77 666.39 240.653 672.571 249.91C678.753 259.168 687.541 266.385 697.824 270.648C708.108 274.911 719.424 276.03 730.343 273.862C741.262 271.693 751.293 266.336 759.167 258.468C767.041 250.599 772.405 240.572 774.581 229.655C776.756 218.738 775.645 207.421 771.388 197.135C767.132 186.849 759.92 178.057 750.666 171.869C741.412 165.682 730.531 162.378 719.399 162.374C704.477 162.381 690.168 168.311 679.614 178.86C669.061 189.41 663.126 203.717 663.114 218.638H663.096ZM279.585 850.799C249.84 850.459 220.376 845.002 192.482 834.668C172.109 827.138 153.677 815.151 138.533 799.583C122.941 784.473 110.949 766.048 103.447 745.673C93.0946 717.784 87.6252 688.319 87.2785 658.573C85.0069 609.132 84.5194 594.28 84.5194 469.032C84.5194 343.785 85.0069 328.969 87.2785 279.492C87.6521 249.751 93.1079 220.293 103.41 192.391C110.94 172.02 122.928 153.589 138.496 138.445C153.614 122.845 172.054 110.853 192.445 103.36C220.349 93.0134 249.827 87.5535 279.585 87.2199C329.028 84.9483 343.881 84.4609 469.041 84.4609C594.202 84.4609 609.11 84.9483 658.589 87.2199C688.331 87.5933 717.79 93.0488 745.693 103.351C766.072 110.867 784.507 122.855 799.642 138.435C815.223 153.569 827.212 172.004 834.728 192.382C845.067 220.274 850.524 249.738 850.859 279.483C853.131 328.96 853.619 343.775 853.619 469.023C853.619 594.271 853.168 609.086 850.859 658.563C850.5 688.305 845.044 717.766 834.728 745.664C826.922 765.891 814.967 784.259 799.633 799.587C784.298 814.915 765.924 826.862 745.693 834.659C717.8 844.998 688.335 850.454 658.589 850.789C609.147 853.061 594.294 853.548 469.041 853.548C343.789 853.548 328.973 853.098 279.585 850.789V850.799ZM275.668 2.84173C236.759 3.61144 198.263 10.9782 161.819 24.6283C130.519 36.406 102.162 54.866 78.7254 78.7223C54.8435 102.136 36.3763 130.494 24.6201 161.804C10.9728 198.25 3.60884 236.747 2.84184 275.657C0.53342 325.668 0 341.651 0 469.023C0 596.395 0.53342 612.379 2.84184 662.389C3.61247 701.296 10.9795 739.791 24.6293 776.233C36.3851 807.544 54.8487 835.904 78.7254 859.324C102.17 883.168 130.52 901.629 161.81 913.427C198.255 927.072 236.75 934.438 275.658 935.213C325.699 937.485 341.655 938.055 469.032 938.055C596.409 938.055 612.393 937.522 662.406 935.213C701.315 934.443 739.81 927.076 776.254 913.427C807.419 901.379 835.723 882.951 859.349 859.325C882.976 835.699 901.405 807.397 913.453 776.233C927.121 739.796 934.489 701.298 935.241 662.389C937.513 612.342 938 596.395 938 469.023C938 341.651 937.467 325.668 935.241 275.657C934.472 236.749 927.105 198.255 913.453 161.813C901.658 130.522 883.2 102.17 859.357 78.7223C835.946 54.8544 807.603 36.3895 776.31 24.6191C739.865 10.962 701.364 3.59803 662.452 2.84173C612.448 0.570185 596.455 0 469.041 0C341.628 0 325.662 0.533399 275.631 2.84173" fill="url(#paint0_radial)"/>
<path id="Path 15" d="M312.694 469.023C312.694 438.102 321.864 407.875 339.044 382.165C356.223 356.454 380.641 336.416 409.21 324.583C437.779 312.75 469.215 309.654 499.543 315.686C529.872 321.718 557.73 336.609 579.596 358.473C601.461 380.338 616.352 408.195 622.384 438.522C628.417 468.85 625.321 500.285 613.487 528.852C601.654 557.42 581.614 581.837 555.903 599.016C530.192 616.195 499.964 625.364 469.041 625.364C427.576 625.364 387.808 608.892 358.487 579.573C329.166 550.253 312.694 510.487 312.694 469.023ZM228.166 469.023C228.166 516.655 242.29 563.218 268.754 602.823C295.217 642.428 332.831 673.297 376.839 691.526C420.846 709.756 469.272 714.527 515.991 705.236C562.71 695.945 605.625 673.011 639.309 639.331C672.994 605.652 695.934 562.742 705.231 516.025C714.527 469.309 709.761 420.885 691.536 376.877C673.311 332.869 642.446 295.253 602.842 268.786C563.238 242.319 516.675 228.19 469.041 228.184C437.412 228.183 406.093 234.412 376.871 246.515C347.65 258.617 321.098 276.357 298.733 298.722C276.368 321.086 258.628 347.636 246.524 376.857C234.421 406.077 228.192 437.395 228.193 469.023H228.166ZM663.096 218.638C663.092 229.77 666.39 240.653 672.571 249.91C678.753 259.168 687.541 266.385 697.824 270.648C708.108 274.911 719.424 276.03 730.343 273.862C741.262 271.693 751.293 266.336 759.167 258.468C767.041 250.599 772.405 240.572 774.581 229.655C776.756 218.738 775.645 207.421 771.388 197.135C767.132 186.849 759.92 178.057 750.666 171.869C741.412 165.682 730.531 162.378 719.399 162.374C704.477 162.381 690.168 168.311 679.614 178.86C669.061 189.41 663.126 203.717 663.114 218.638H663.096ZM279.585 850.799C249.84 850.459 220.376 845.002 192.482 834.668C172.109 827.138 153.677 815.151 138.533 799.583C122.941 784.473 110.949 766.048 103.447 745.673C93.0946 717.784 87.6252 688.319 87.2785 658.573C85.0069 609.132 84.5194 594.28 84.5194 469.032C84.5194 343.785 85.0069 328.969 87.2785 279.492C87.6521 249.751 93.1079 220.293 103.41 192.391C110.94 172.02 122.928 153.589 138.496 138.445C153.614 122.845 172.054 110.853 192.445 103.36C220.349 93.0134 249.827 87.5535 279.585 87.2199C329.028 84.9483 343.881 84.4609 469.041 84.4609C594.202 84.4609 609.11 84.9483 658.589 87.2199C688.331 87.5933 717.79 93.0488 745.693 103.351C766.072 110.867 784.507 122.855 799.642 138.435C815.223 153.569 827.212 172.004 834.728 192.382C845.067 220.274 850.524 249.738 850.859 279.483C853.131 328.96 853.619 343.775 853.619 469.023C853.619 594.271 853.168 609.086 850.859 658.563C850.5 688.305 845.044 717.766 834.728 745.664C826.922 765.891 814.967 784.259 799.633 799.587C784.298 814.915 765.924 826.862 745.693 834.659C717.8 844.998 688.335 850.454 658.589 850.789C609.147 853.061 594.294 853.548 469.041 853.548C343.789 853.548 328.973 853.098 279.585 850.789V850.799ZM275.668 2.84173C236.759 3.61144 198.263 10.9782 161.819 24.6283C130.519 36.406 102.162 54.866 78.7254 78.7223C54.8435 102.136 36.3763 130.494 24.6201 161.804C10.9728 198.25 3.60884 236.747 2.84184 275.657C0.53342 325.668 0 341.651 0 469.023C0 596.395 0.53342 612.379 2.84184 662.389C3.61247 701.296 10.9795 739.791 24.6293 776.233C36.3851 807.544 54.8487 835.904 78.7254 859.324C102.17 883.168 130.52 901.629 161.81 913.427C198.255 927.072 236.75 934.438 275.658 935.213C325.699 937.485 341.655 938.055 469.032 938.055C596.409 938.055 612.393 937.522 662.406 935.213C701.315 934.443 739.81 927.076 776.254 913.427C807.419 901.379 835.723 882.951 859.349 859.325C882.976 835.699 901.405 807.397 913.453 776.233C927.121 739.796 934.489 701.298 935.241 662.389C937.513 612.342 938 596.395 938 469.023C938 341.651 937.467 325.668 935.241 275.657C934.472 236.749 927.105 198.255 913.453 161.813C901.658 130.522 883.2 102.17 859.357 78.7223C835.946 54.8544 807.603 36.3895 776.31 24.6191C739.865 10.962 701.364 3.59803 662.452 2.84173C612.448 0.570185 596.455 0 469.041 0C341.628 0 325.662 0.533399 275.631 2.84173" fill="url(#paint1_radial)"/>
</g>
<defs>
<radialGradient id="paint0_radial" cx="0" cy="0" r="1" gradientUnits="userSpaceOnUse" gradientTransform="translate(124.627 942.479) scale(1224.54 1224.49)">
<stop offset="0.09" stop-color="#FA8F21"/>
<stop offset="0.78" stop-color="#D82D7E"/>
</radialGradient>
<radialGradient id="paint1_radial" cx="0" cy="0" r="1" gradientUnits="userSpaceOnUse" gradientTransform="translate(568.91 984.498) scale(965.103 965.065)">
<stop offset="0.64" stop-color="#8C3AAA" stop-opacity="0"/>
<stop offset="1" stop-color="#8C3AAA"/>
</radialGradient>
</defs>
</svg>
