<svg width="921" height="921" viewBox="0 0 921 921" fill="none" xmlns="http://www.w3.org/2000/svg">
<g id="whatsapp-icon">
<path id="Vector" d="M919.965 686.563C919.965 691.6 919.812 702.525 919.509 710.964C918.768 731.612 917.131 758.257 914.656 770.397C910.936 788.64 905.32 805.86 897.997 820.192C889.334 837.147 878.283 852.334 865.152 865.441C852.049 878.523 836.876 889.53 819.947 898.159C805.539 905.501 788.212 911.12 769.864 914.824C757.845 917.251 731.4 918.856 710.883 919.586C702.436 919.888 691.51 920.039 686.491 920.039L233.475 919.967C228.438 919.967 217.514 919.812 209.075 919.509C188.427 918.769 161.783 917.132 149.642 914.658C131.398 910.936 114.178 905.321 99.8461 897.999C82.8908 889.334 67.7045 878.284 54.5972 865.152C41.5159 852.049 30.5082 836.877 21.8806 819.948C14.5367 805.54 8.91789 788.213 5.21363 769.866C2.78785 757.846 1.18234 731.402 0.451914 710.884C0.151836 702.438 0 691.511 0 686.493L0.071875 233.476C0.071875 228.438 0.225508 217.514 0.528281 209.075C1.26949 188.427 2.90555 161.783 5.38074 149.643C9.10117 131.399 14.7164 114.179 22.0396 99.8461C30.7032 82.8916 41.7549 67.7044 54.8856 54.5971C67.9884 41.5168 83.1612 30.5082 100.09 21.8796C114.499 14.5376 131.827 8.91879 150.174 5.21453C162.192 2.78785 188.638 1.18234 209.154 0.452812C217.602 0.151836 228.529 0 233.546 0L686.563 0.0727735C691.601 0.0727735 702.524 0.226406 710.963 0.52918C731.612 1.27039 758.255 2.90644 770.397 5.38164C788.64 9.10207 805.86 14.7173 820.193 22.0405C837.147 30.7041 852.333 41.7558 865.441 54.8864C878.521 67.9893 889.53 83.1612 898.157 100.091C905.501 114.5 911.12 131.827 914.824 150.174C917.25 162.193 918.855 188.638 919.586 209.155C919.887 217.602 920.039 228.529 920.039 233.548L919.965 686.563V686.563Z" fill="#61FD7D"/>
<g id="Group">
<path id="Vector_2" d="M703.766 217.662C641.478 155.323 558.642 120.974 470.385 120.938C288.54 120.938 140.539 268.882 140.466 450.73C140.443 508.858 155.635 565.599 184.505 615.613L137.7 786.522L312.594 740.659C360.783 766.933 415.036 780.78 470.254 780.803H470.39C652.217 780.803 800.231 632.841 800.305 450.992C800.34 362.867 766.056 280.002 703.766 217.662V217.662ZM470.39 725.101H470.277C421.073 725.082 372.812 711.868 330.71 686.891L320.696 680.951L216.912 708.167L244.614 607.01L238.092 596.639C210.643 552.993 196.146 502.546 196.168 450.751C196.227 299.608 319.24 176.642 470.496 176.642C543.737 176.669 612.587 205.222 664.36 257.036C716.132 308.849 744.628 377.725 744.601 450.971C744.542 602.127 621.529 725.101 470.39 725.101V725.101ZM620.802 519.794C612.557 515.67 572.029 495.732 564.472 492.982C556.916 490.231 551.421 488.857 545.924 497.108C540.43 505.357 524.632 523.92 519.822 529.419C515.013 534.92 510.205 535.608 501.962 531.482C493.718 527.357 467.156 518.655 435.669 490.58C411.165 468.731 394.619 441.742 389.811 433.491C385.002 425.24 389.299 420.781 393.426 416.672C397.134 412.98 401.669 407.047 405.791 402.235C409.912 397.424 411.287 393.984 414.034 388.485C416.783 382.985 415.408 378.172 413.347 374.047C411.287 369.922 394.8 329.36 387.93 312.86C381.239 296.791 374.442 298.965 369.382 298.712C364.579 298.473 359.078 298.423 353.583 298.423C348.088 298.423 339.157 300.485 331.601 308.735C324.045 316.986 302.749 336.923 302.749 377.485C302.749 418.046 332.287 457.234 336.409 462.733C340.531 468.233 394.537 551.472 477.231 587.168C496.9 595.658 512.254 600.729 524.227 604.528C543.974 610.798 561.945 609.914 576.15 607.793C591.988 605.427 624.921 587.857 631.792 568.607C638.662 549.357 638.662 532.858 636.601 529.42C634.54 525.983 629.045 523.92 620.802 519.794V519.794Z" fill="white"/>
</g>
</g>
</svg>
